HIERARCHY
ROOT Hips
{
	OFFSET 0.0000 0.0000 0.0000
	CHANNELS 6 Xposition Yposition Zposition Zrotation Xrotation Yrotation
	JOINT Spine1
	{
		OFFSET -0.0137 5.0038 -0.0537
		CHANNELS 3 Zrotation Xrotation Yrotation
		JOINT Spine2
		{
			OFFSET -0.0000 7.1253 -0.0298
			CHANNELS 3 Zrotation Xrotation Yrotation
			JOINT Chest
			{
				OFFSET -0.0000 7.5501 -0.8160
				CHANNELS 3 Zrotation Xrotation Yrotation
				JOINT Neck1
				{
					OFFSET -0.1817 26.3113 -0.5533
					CHANNELS 3 Zrotation Xrotation Yrotation
					JOINT Neck2
					{
						OFFSET -0.0000 7.7094 2.3026
						CHANNELS 3 Zrotation Xrotation Yrotation
						JOINT Head
						{
							OFFSET -0.0000 6.1289 1.9537
							CHANNELS 3 Zrotation Xrotation Yrotation
							JOINT Jaw
							{
								OFFSET 0.0026 0.4756 3.0949
								CHANNELS 3 Zrotation Xrotation Yrotation
								End Site
								{
									OFFSET 0.0 1.0 0.0
								}
							}
							JOINT LeftEye
							{
								OFFSET 3.2064 5.3802 7.5869
								CHANNELS 3 Zrotation Xrotation Yrotation
								End Site
								{
									OFFSET 0.0 1.0 0.0
								}
							}
							JOINT RightEye
							{
								OFFSET -3.2224 5.3619 7.5582
								CHANNELS 3 Zrotation Xrotation Yrotation
								End Site
								{
									OFFSET 0.0 1.0 0.0
								}
							}
						}
					}
				}
				JOINT LeftShoulder
				{
					OFFSET 1.6217 23.2372 5.1134
					CHANNELS 3 Zrotation Xrotation Yrotation
					JOINT LeftArm
					{
						OFFSET 14.9198 0.0000 -5.5023
						CHANNELS 3 Zrotation Xrotation Yrotation
						JOINT LeftForeArm
						{
							OFFSET 28.7393 0.0000 -0.0026
							CHANNELS 3 Zrotation Xrotation Yrotation
							JOINT LeftHand
							{
								OFFSET 27.0940 -0.0000 0.0026
								CHANNELS 3 Zrotation Xrotation Yrotation
								JOINT LeftHandThumbEnd
								{
									OFFSET 12.2686 -3.2202 4.8331
									CHANNELS 3 Zrotation Xrotation Yrotation
									End Site
									{
										OFFSET 0.0 1.0 0.0
									}
								}
								JOINT LeftHandMiddleEnd
								{
									OFFSET 19.0120 -0.3129 -0.0340
									CHANNELS 3 Zrotation Xrotation Yrotation
									End Site
									{
										OFFSET 0.0 1.0 0.0
									}
								}
							}
						}
					}
				}
				JOINT RightShoulder
				{
					OFFSET -1.3801 23.1803 5.2142
					CHANNELS 3 Zrotation Xrotation Yrotation
					JOINT RightArm
					{
						OFFSET -15.0372 0.0000 -5.5456
						CHANNELS 3 Zrotation Xrotation Yrotation
						JOINT RightForeArm
						{
							OFFSET -28.7366 0.0000 -0.0026
							CHANNELS 3 Zrotation Xrotation Yrotation
							JOINT RightHand
							{
								OFFSET -27.1336 -0.0000 0.0026
								CHANNELS 3 Zrotation Xrotation Yrotation
								JOINT RightHandThumbEnd
								{
									OFFSET -12.2642 -3.2115 4.8040
									CHANNELS 3 Zrotation Xrotation Yrotation
									End Site
									{
										OFFSET 0.0 1.0 0.0
									}
								}
								JOINT RightHandMiddleEnd
								{
									OFFSET -19.0006 -0.3066 -0.0316
									CHANNELS 3 Zrotation Xrotation Yrotation
									End Site
									{
										OFFSET 0.0 1.0 0.0
									}
								}
							}
						}
					}
				}
			}
		}
	}
	JOINT LeftLeg
	{
		OFFSET 10.0432 -8.4345 2.5957
		CHANNELS 3 Zrotation Xrotation Yrotation
		JOINT LeftShin
		{
			OFFSET -0.0000 -43.2218 -0.8029
			CHANNELS 3 Zrotation Xrotation Yrotation
			JOINT LeftFoot
			{
				OFFSET 0.0000 -42.1551 -3.4815
				CHANNELS 3 Zrotation Xrotation Yrotation
				JOINT LeftToeBase
				{
					OFFSET 0.0000 -5.0595 13.2315
					CHANNELS 3 Zrotation Xrotation Yrotation
					End Site
					{
						OFFSET 0.0 1.0 0.0
					}
				}
			}
		}
	}
	JOINT RightLeg
	{
		OFFSET -10.0473 -8.2953 2.6203
		CHANNELS 3 Zrotation Xrotation Yrotation
		JOINT RightShin
		{
			OFFSET 0.0000 -43.3622 -0.8056
			CHANNELS 3 Zrotation Xrotation Yrotation
			JOINT RightFoot
			{
				OFFSET 0.0000 -42.1174 -3.4784
				CHANNELS 3 Zrotation Xrotation Yrotation
				JOINT RightToeBase
				{
					OFFSET -0.0000 -5.0796 13.2842
					CHANNELS 3 Zrotation Xrotation Yrotation
					End Site
					{
						OFFSET 0.0 1.0 0.0
					}
				}
			}
		}
	}
}
MOTION
Frames: 12
Frame Time: 0.033333
-2.5137 99.6514 -0.4994 -0.3765 -2.5983 0.4900 -5.5372 5.3067 0.6947 -2.2939 -2.6574 3.4135 -10.2792 21.8284 -0.4684 7.8686 -0.0145 -0.4363 -0.3207 -3.6033 0.7584 13.8551 6.3001 -3.6414 -0.1516 -0.1769 0.3086 0.6790 -10.5323 -3.5000 -0.9893 -10.5194 4.1862 -6.3553 13.8863 -18.6386 -71.0526 -27.9132 -5.5966 0.5548 0.6265 -107.5504 33.0801 40.2045 56.5202 -14.7700 10.2883 15.4977 -58.5711 1.0819 2.5471 -15.9507 16.5911 23.6064 102.8860 -40.5013 -39.9543 1.7622 1.0910 118.4550 18.9306 45.9819 -23.0898 15.0824 7.3227 -15.8493 50.3804 -3.3997 -4.6541 -1.3796 -6.9512 16.3765 0.0799 14.4690 0.2195 1.1068 -5.1866 5.1292 1.6541 -0.1130 -1.8295 -6.1922 -11.3078 -8.4569 0.0204 12.9418 0.3888 7.8303 1.2403 4.1024 -1.4659 -0.8008 1.1357
-2.1796 99.6252 -0.6620 -0.4514 -2.6298 0.0939 -5.6248 5.4246 0.7266 -2.3202 -2.5876 3.3868 -10.3517 21.8947 -0.5394 7.8409 -0.0166 -0.4769 -0.1671 -3.6250 0.8307 13.8800 6.3677 -3.6104 -0.1537 -0.1795 0.2974 0.6761 -10.5330 -3.5107 -0.9898 -10.5130 4.1719 -6.4277 13.8656 -18.4685 -71.2737 -27.8088 -5.5332 0.6361 0.6620 -107.3588 33.5380 40.8668 56.9232 -14.7616 10.3317 15.3482 -58.8656 1.1604 2.4108 -15.9177 16.6048 23.4456 103.4144 -40.3709 -40.1243 1.7063 1.0427 118.1704 19.1320 45.9519 -23.1495 15.0079 7.2256 -15.8059 50.2552 -3.3985 -4.5975 -1.5665 -7.0994 16.3298 0.0646 14.7701 0.1700 1.4336 -5.3248 5.1842 1.6576 -0.0534 -1.8595 -6.3261 -11.6273 -8.2013 0.0072 13.1648 0.4042 8.1566 1.6314 4.2382 -1.4698 -0.7649 1.1088
-1.7626 99.5600 -0.8228 -0.4867 -2.6358 -0.4455 -5.7376 5.5269 0.7727 -2.3592 -2.5481 3.3578 -10.3952 22.0001 -0.5367 7.7872 -0.0538 -0.4352 -0.0560 -3.6609 0.8046 13.9642 6.4626 -3.5348 -0.1504 -0.1807 0.2898 0.6777 -10.5630 -3.5215 -0.9845 -10.5354 4.1658 -6.4761 13.8365 -18.3667 -71.6973 -27.6593 -5.2361 0.6312 0.6467 -107.2493 33.8468 40.7764 57.1647 -14.7077 10.3868 15.3253 -59.0203 1.2258 2.4033 -15.9255 16.6194 23.2382 103.9316 -40.2986 -40.2825 1.6931 0.9330 117.9495 19.0888 45.8575 -23.3120 14.8747 7.1598 -15.7782 50.1101 -3.3575 -4.5775 -1.8253 -7.3383 16.2644 0.0609 15.1636 0.1426 1.8830 -5.4638 5.4239 1.6641 0.0863 -1.8668 -6.5379 -12.0967 -7.8234 0.0073 13.5182 0.3916 8.5956 2.0730 4.5511 -1.4733 -0.6836 1.1169
-1.3119 99.4770 -0.9929 -0.5239 -2.6263 -1.0915 -5.8506 5.6117 0.7914 -2.3959 -2.5087 3.3745 -10.4056 22.1303 -0.4879 7.6378 -0.0543 -0.3169 0.0311 -3.6946 0.7920 14.1080 6.4388 -3.4249 -0.1448 -0.1804 0.2793 0.6792 -10.5933 -3.5387 -0.9743 -10.5618 4.1575 -6.4595 13.8529 -18.2925 -72.1258 -27.6340 -4.8680 0.5293 0.6231 -107.1672 33.8968 40.4514 57.2253 -14.5991 10.3849 15.2938 -59.0209 1.2506 2.4304 -15.9818 16.6910 22.9526 104.5503 -40.2818 -40.4954 1.7407 0.7787 117.7964 19.3624 46.0667 -23.3270 14.8317 7.1276 -15.7734 50.0549 -3.3035 -4.6178 -2.0781 -7.6328 16.2930 0.0666 15.5821 0.1378 2.2521 -5.5520 5.7662 1.6644 0.2229 -1.8568 -6.7437 -12.5787 -7.3204 0.0053 13.7772 0.3906 9.0544 2.5396 5.0034 -1.4731 -0.7088 1.1260
-0.8174 99.4104 -1.1331 -0.5767 -2.6138 -1.9064 -5.9705 5.7093 0.8105 -2.4224 -2.4736 3.3932 -10.4208 22.2470 -0.4262 7.4126 -0.0119 -0.1801 0.1631 -3.7080 0.8435 14.2952 6.3341 -3.1705 -0.1428 -0.1729 0.2727 0.6762 -10.6024 -3.5470 -0.9666 -10.5684 4.1508 -6.3468 13.7912 -18.2321 -72.5867 -27.6123 -4.3308 0.3476 0.6398 -107.1705 33.6382 39.8255 57.0881 -14.5191 10.3555 15.2493 -58.9176 1.2868 2.4573 -16.0880 16.8257 22.6741 105.0530 -40.4126 -40.4252 1.6790 0.6983 117.6668 19.9731 46.5025 -23.0544 14.8362 7.1039 -15.7820 50.0549 -3.2709 -4.6553 -2.3123 -7.9304 16.4510 0.0720 15.9145 0.1405 2.6014 -5.6074 6.2213 1.6662 0.3922 -1.8551 -6.9360 -13.0912 -6.6593 0.0061 13.9913 0.4044 9.6160 3.1059 5.6130 -1.4745 -0.8200 1.1467
-0.3778 99.3910 -1.4209 -0.6286 -2.6046 -2.9040 -6.1310 5.8088 0.8793 -2.4300 -2.4365 3.3989 -10.4275 22.3743 -0.2838 7.1891 0.0323 -0.0558 0.2732 -3.6530 0.9751 14.5154 6.2619 -2.8272 -0.1615 -0.1472 0.3084 0.6638 -10.5995 -3.5138 -0.9913 -10.5662 4.1930 -6.1790 13.8025 -18.3894 -72.8993 -27.7567 -3.6231 0.1459 0.6632 -107.2673 33.1140 38.9578 57.0197 -14.4653 10.3162 15.1964 -58.6949 1.2931 2.4397 -16.2222 16.9347 22.4741 105.5167 -40.4370 -40.4875 1.8034 0.6919 117.7700 20.8373 46.9420 -22.6904 14.8608 7.0230 -15.7455 49.8905 -3.3210 -4.6835 -2.5205 -8.0802 16.7915 0.0806 15.9356 0.1326 2.9787 -5.5636 6.7898 1.6623 0.6383 -1.8792 -7.1227 -13.6378 -5.8912 0.0354 14.0605 0.4571 10.4298 3.8223 6.3667 -1.4865 -1.0120 1.1614
-0.0224 99.3843 -1.7758 -0.7203 -2.6019 -3.8812 -6.2961 5.9331 0.9179 -2.4347 -2.3933 3.3669 -10.4673 22.4588 -0.2376 6.9064 0.1525 0.0430 0.4335 -3.6648 1.1576 14.7808 6.3296 -2.4410 -0.1636 -0.1435 0.3028 0.6610 -10.6078 -3.5210 -0.9931 -10.5764 4.1905 -5.8975 13.7011 -18.4904 -73.2490 -27.8183 -2.8391 -0.0436 0.6325 -107.2709 32.6335 37.9526 56.8361 -14.4517 10.3433 15.2045 -58.7503 1.3228 2.4208 -16.2919 17.0944 22.3564 105.6301 -40.6606 -39.9479 1.7360 0.6679 117.8102 21.6161 47.3801 -22.1661 14.8616 7.0014 -15.7843 49.8646 -3.3418 -4.7379 -2.6443 -8.2092 17.2268 0.0882 15.7812 0.1677 3.3688 -5.4254 7.2657 1.6639 0.8194 -1.8674 -7.2083 -14.0933 -5.3427 0.0510 14.1134 0.4890 11.2921 4.2507 7.4434 -1.4790 -1.3624 1.2078
0.2587 99.4121 -2.1665 -0.7739 -2.5932 -4.7507 -6.4896 5.9866 0.9121 -2.4780 -2.2685 3.3034 -10.5146 22.5128 -0.1891 6.6164 0.2002 0.1861 0.6100 -3.6904 1.3598 14.9954 6.6609 -2.0131 -0.1557 -0.1428 0.2602 0.6704 -10.6079 -3.5605 -0.9870 -10.5728 4.1439 -5.5747 13.6024 -18.6442 -73.5128 -27.9127 -1.9810 -0.1770 0.6168 -107.1603 32.1165 37.1305 56.9712 -14.5814 10.3482 15.1881 -58.9028 1.3481 2.4540 -16.2565 17.4217 22.1172 105.9975 -41.1300 -39.5798 1.9358 0.6151 117.9566 22.3742 47.3920 -22.1313 14.9021 6.9175 -15.8262 49.7382 -3.3540 -4.9214 -2.7552 -8.1981 17.6119 0.0739 15.2619 0.1921 3.7226 -5.0519 7.7082 1.6637 0.8891 -1.8443 -7.2386 -14.3983 -5.3074 0.0617 14.0660 0.6688 12.4728 4.2794 8.8007 -1.4506 -1.7201 1.2074
0.4218 99.4627 -2.5623 -0.9637 -2.5385 -5.4253 -6.6356 6.0277 0.8980 -2.5059 -2.2457 3.2928 -10.5559 22.5762 -0.1951 6.3314 0.3583 0.2392 0.7181 -3.7076 1.5168 15.3291 7.1119 -1.6181 -0.1619 -0.1401 0.2545 0.6659 -10.6239 -3.5715 -0.9955 -10.5913 4.1469 -5.3633 13.5263 -18.9626 -73.3795 -28.1101 -1.2358 -0.3762 0.6812 -106.9680 31.4793 36.2835 57.5472 -14.5340 10.3984 15.3066 -59.0307 1.3643 2.4963 -16.2551 17.6139 21.9010 105.9927 -41.5060 -38.7606 1.9448 0.6961 117.9396 23.1486 47.4847 -22.0474 14.9115 6.8641 -15.8123 49.7068 -3.3805 -4.9179 -2.7096 -8.2647 18.1325 0.0904 14.6972 0.2327 3.9784 -4.5998 7.7894 1.6617 0.9886 -1.8205 -7.0662 -14.5509 -5.6213 0.0974 14.5959 0.7716 13.0646 2.9933 9.2569 -1.4246 -1.9963 1.2303
0.4967 99.5631 -3.0219 -1.2367 -2.4319 -5.8244 -6.6814 6.0357 0.8853 -2.5262 -2.2314 3.2912 -10.6597 22.6333 -0.2878 6.0628 0.4742 0.3525 0.8157 -3.6965 1.5731 15.6468 7.6522 -1.3407 -0.1614 -0.1366 0.2420 0.6642 -10.6506 -3.5901 -0.9931 -10.6201 4.1424 -5.2059 13.4022 -19.3965 -73.1380 -28.4213 -0.4397 -0.6211 0.7591 -106.8240 30.9734 35.6424 58.3272 -14.5398 10.4469 15.4073 -59.0892 1.4006 2.5097 -16.2939 17.8126 21.7355 105.7668 -41.9424 -37.8355 1.8760 0.6914 117.9001 24.2409 47.9459 -21.9448 15.0546 6.8694 -15.8074 49.8165 -3.3520 -4.8887 -2.5293 -8.4566 18.6012 0.1007 14.1403 0.2612 4.1581 -4.0660 7.6339 1.6574 1.0776 -1.8153 -6.7010 -14.6486 -6.4398 0.1198 16.4374 0.8498 12.4035 1.0543 8.5819 -1.4255 -2.2002 1.2055
0.4695 99.7029 -3.4723 -1.5361 -2.2716 -6.0441 -6.6535 5.9857 0.8701 -2.5509 -2.2242 3.3280 -10.7970 22.6451 -0.3701 5.7320 0.5660 0.4461 0.9132 -3.6877 1.5581 15.9541 8.3317 -1.1679 -0.1601 -0.1383 0.2326 0.6571 -10.6798 -3.6071 -0.9832 -10.6499 4.1402 -5.1183 13.3437 -19.8656 -72.8452 -28.9330 0.2426 -0.8016 0.8210 -106.8186 30.6206 35.1647 58.9072 -14.5564 10.5188 15.4971 -59.1780 1.4170 2.5166 -16.3916 18.0032 21.5966 105.3986 -42.3730 -36.9644 1.7755 0.7609 117.7782 25.4844 48.5779 -21.5640 15.2064 6.9102 -15.8162 50.0051 -3.3357 -4.8501 -2.2783 -8.6913 19.0506 0.1075 13.4854 0.2746 4.2749 -3.4446 7.3231 1.6529 1.1318 -1.8215 -6.2926 -14.3982 -7.3911 0.1244 19.0884 0.8973 10.7680 -0.9813 7.1791 -1.4372 -2.3253 1.1503
0.3803 99.8001 -3.9337 -1.7740 -2.0043 -6.0911 -6.6052 5.8915 0.8862 -2.5753 -2.2618 3.3707 -10.9674 22.5597 -0.4645 5.3984 0.6215 0.5255 0.9920 -3.6720 1.4556 16.2137 9.0493 -1.1101 -0.1584 -0.1383 0.2265 0.6522 -10.6938 -3.6195 -0.9747 -10.6621 4.1393 -5.1440 13.2398 -20.3151 -72.4678 -29.4953 0.7472 -0.9148 0.8526 -106.9714 30.2261 34.6459 58.9138 -14.5685 10.5891 15.5624 -59.2416 1.4036 2.5040 -16.5702 18.0627 21.5190 104.9399 -42.6434 -36.2916 1.6795 0.8299 117.5965 26.3118 48.9808 -21.0935 15.2177 6.9564 -15.8219 50.0602 -3.3307 -4.7918 -2.0916 -9.0363 19.4578 0.1134 12.7994 0.2837 4.3057 -2.7771 6.9385 1.6496 1.0932 -1.8204 -6.0487 -13.7500 -8.1556 0.1242 22.0326 0.8999 8.8631 -2.9151 5.4290 -1.4531 -2.3769 1.0992
